<?xml version="1.0" encoding="UTF-8"?>
<!DOCTYPE svg PUBLIC "-//W3C//DTD SVG 1.1//EN" "http://www.w3.org/Graphics/SVG/1.1/DTD/svg11.dtd">
<svg xmlns="http://www.w3.org/2000/svg" version="1.1" width="1024px" height="1024px" style="shape-rendering:geometricPrecision; text-rendering:geometricPrecision; image-rendering:optimizeQuality; fill-rule:evenodd; clip-rule:evenodd" xmlns:xlink="http://www.w3.org/1999/xlink">
<g><path style="opacity:0.122" fill="#f6f6f6" d="M 232.5,101.5 C 226.5,101.5 220.5,101.5 214.5,101.5C 190.5,101.5 166.5,101.5 142.5,101.5C 142.5,107.833 142.5,114.167 142.5,120.5C 136.5,120.5 130.5,120.5 124.5,120.5C 124.5,125.833 124.5,131.167 124.5,136.5C 118.167,136.5 111.833,136.5 105.5,136.5C 105.5,172.833 105.5,209.167 105.5,245.5C 100.167,245.5 94.8333,245.5 89.5,245.5C 89.5,203.833 89.5,162.167 89.5,120.5C 94.8333,120.5 100.167,120.5 105.5,120.5C 105.5,114.167 105.5,107.833 105.5,101.5C 111.833,101.5 118.167,101.5 124.5,101.5C 124.5,95.1667 124.5,88.8333 124.5,82.5C 160.5,82.5 196.5,82.5 232.5,82.5C 232.5,88.8333 232.5,95.1667 232.5,101.5 Z"/></g>
<g><path style="opacity:0.121" fill="#f6f6f6" d="M 914.5,245.5 C 914.5,209.167 914.5,172.833 914.5,136.5C 908.5,136.5 902.5,136.5 896.5,136.5C 896.5,131.167 896.5,125.833 896.5,120.5C 890.5,120.5 884.5,120.5 878.5,120.5C 878.5,114.167 878.5,107.833 878.5,101.5C 872.167,101.5 865.833,101.5 859.5,101.5C 841.833,101.5 824.167,101.5 806.5,101.5C 800.167,101.5 793.833,101.5 787.5,101.5C 787.5,95.1667 787.5,88.8333 787.5,82.5C 823.833,82.5 860.167,82.5 896.5,82.5C 896.5,88.8333 896.5,95.1667 896.5,101.5C 902.5,101.5 908.5,101.5 914.5,101.5C 914.5,107.833 914.5,114.167 914.5,120.5C 920.167,120.5 925.833,120.5 931.5,120.5C 931.5,162.167 931.5,203.833 931.5,245.5C 925.833,245.5 920.167,245.5 914.5,245.5 Z"/></g>
<g><path style="opacity:1" fill="#552020" d="M 214.5,101.5 C 214.5,107.833 214.5,114.167 214.5,120.5C 190.5,120.5 166.5,120.5 142.5,120.5C 142.5,114.167 142.5,107.833 142.5,101.5C 166.5,101.5 190.5,101.5 214.5,101.5 Z"/></g>
<g><path style="opacity:1" fill="#491717" d="M 214.5,101.5 C 220.5,101.5 226.5,101.5 232.5,101.5C 238.167,101.5 243.833,101.5 249.5,101.5C 249.5,107.833 249.5,114.167 249.5,120.5C 237.833,120.5 226.167,120.5 214.5,120.5C 214.5,114.167 214.5,107.833 214.5,101.5 Z"/></g>
<g><path style="opacity:0.043" fill="#f6f7f6" d="M 249.5,101.5 C 255.5,101.5 261.5,101.5 267.5,101.5C 267.5,107.833 267.5,114.167 267.5,120.5C 261.5,120.5 255.5,120.5 249.5,120.5C 249.5,114.167 249.5,107.833 249.5,101.5 Z"/></g>
<g><path style="opacity:0.043" fill="#f6f7f6" d="M 771.5,101.5 C 771.5,107.833 771.5,114.167 771.5,120.5C 765.5,120.5 759.5,120.5 753.5,120.5C 753.5,114.167 753.5,107.833 753.5,101.5C 759.5,101.5 765.5,101.5 771.5,101.5 Z"/></g>
<g><path style="opacity:1" fill="#4a1818" d="M 771.5,101.5 C 776.833,101.5 782.167,101.5 787.5,101.5C 793.833,101.5 800.167,101.5 806.5,101.5C 806.5,107.833 806.5,114.167 806.5,120.5C 794.833,120.5 783.167,120.5 771.5,120.5C 771.5,114.167 771.5,107.833 771.5,101.5 Z"/></g>
<g><path style="opacity:1" fill="#592323" d="M 806.5,101.5 C 824.167,101.5 841.833,101.5 859.5,101.5C 859.5,107.833 859.5,114.167 859.5,120.5C 841.833,120.5 824.167,120.5 806.5,120.5C 806.5,114.167 806.5,107.833 806.5,101.5 Z"/></g>
<g><path style="opacity:1" fill="#491817" d="M 859.5,101.5 C 865.833,101.5 872.167,101.5 878.5,101.5C 878.5,107.833 878.5,114.167 878.5,120.5C 872.167,120.5 865.833,120.5 859.5,120.5C 859.5,114.167 859.5,107.833 859.5,101.5 Z"/></g>
<g><path style="opacity:1" fill="#491716" d="M 142.5,120.5 C 142.5,125.833 142.5,131.167 142.5,136.5C 136.5,136.5 130.5,136.5 124.5,136.5C 124.5,131.167 124.5,125.833 124.5,120.5C 130.5,120.5 136.5,120.5 142.5,120.5 Z"/></g>
<g><path style="opacity:0.998" fill="#f6f6f6" d="M 142.5,120.5 C 166.5,120.5 190.5,120.5 214.5,120.5C 226.167,120.5 237.833,120.5 249.5,120.5C 249.5,125.833 249.5,131.167 249.5,136.5C 261.833,136.5 274.167,136.5 286.5,136.5C 286.5,142.833 286.5,149.167 286.5,155.5C 298.167,155.5 309.833,155.5 321.5,155.5C 321.5,161.5 321.5,167.5 321.5,173.5C 333.5,173.5 345.5,173.5 357.5,173.5C 357.5,179.833 357.5,186.167 357.5,192.5C 363.833,192.5 370.167,192.5 376.5,192.5C 376.5,197.833 376.5,203.167 376.5,208.5C 382.5,208.5 388.5,208.5 394.5,208.5C 394.5,214.5 394.5,220.5 394.5,226.5C 400.167,226.5 405.833,226.5 411.5,226.5C 417.5,226.5 423.5,226.5 429.5,226.5C 441.833,226.5 454.167,226.5 466.5,226.5C 478.167,226.5 489.833,226.5 501.5,226.5C 507.5,226.5 513.5,226.5 519.5,226.5C 531.167,226.5 542.833,226.5 554.5,226.5C 572.833,226.5 591.167,226.5 609.5,226.5C 615.167,226.5 620.833,226.5 626.5,226.5C 626.5,220.5 626.5,214.5 626.5,208.5C 632.5,208.5 638.5,208.5 644.5,208.5C 644.5,203.167 644.5,197.833 644.5,192.5C 650.833,192.5 657.167,192.5 663.5,192.5C 663.5,186.167 663.5,179.833 663.5,173.5C 675.5,173.5 687.5,173.5 699.5,173.5C 699.5,167.5 699.5,161.5 699.5,155.5C 711.167,155.5 722.833,155.5 734.5,155.5C 734.5,149.167 734.5,142.833 734.5,136.5C 746.833,136.5 759.167,136.5 771.5,136.5C 771.5,131.167 771.5,125.833 771.5,120.5C 783.167,120.5 794.833,120.5 806.5,120.5C 824.167,120.5 841.833,120.5 859.5,120.5C 865.833,120.5 872.167,120.5 878.5,120.5C 878.5,125.833 878.5,131.167 878.5,136.5C 884.5,136.5 890.5,136.5 896.5,136.5C 896.5,178.833 896.5,221.167 896.5,263.5C 902.5,263.5 908.5,263.5 914.5,263.5C 914.5,269.167 914.5,274.833 914.5,280.5C 908.5,280.5 902.5,280.5 896.5,280.5C 896.5,298.833 896.5,317.167 896.5,335.5C 890.5,335.5 884.5,335.5 878.5,335.5C 878.5,359.5 878.5,383.5 878.5,407.5C 872.167,407.5 865.833,407.5 859.5,407.5C 854.167,407.5 848.833,407.5 843.5,407.5C 843.5,413.5 843.5,419.5 843.5,425.5C 848.833,425.5 854.167,425.5 859.5,425.5C 859.5,437.167 859.5,448.833 859.5,460.5C 865.833,460.5 872.167,460.5 878.5,460.5C 878.5,490.5 878.5,520.5 878.5,550.5C 878.5,568.167 878.5,585.833 878.5,603.5C 872.167,603.5 865.833,603.5 859.5,603.5C 859.5,615.833 859.5,628.167 859.5,640.5C 854.167,640.5 848.833,640.5 843.5,640.5C 843.5,646.5 843.5,652.5 843.5,658.5C 843.5,664.167 843.5,669.833 843.5,675.5C 837.167,675.5 830.833,675.5 824.5,675.5C 824.5,681.5 824.5,687.5 824.5,693.5C 818.5,693.5 812.5,693.5 806.5,693.5C 806.5,699.833 806.5,706.167 806.5,712.5C 800.167,712.5 793.833,712.5 787.5,712.5C 787.5,718.5 787.5,724.5 787.5,730.5C 782.167,730.5 776.833,730.5 771.5,730.5C 771.5,736.167 771.5,741.833 771.5,747.5C 759.167,747.5 746.833,747.5 734.5,747.5C 734.5,753.5 734.5,759.5 734.5,765.5C 722.833,765.5 711.167,765.5 699.5,765.5C 693.5,765.5 687.5,765.5 681.5,765.5C 681.5,771.5 681.5,777.5 681.5,783.5C 669.167,783.5 656.833,783.5 644.5,783.5C 644.5,789.833 644.5,796.167 644.5,802.5C 614.5,802.5 584.5,802.5 554.5,802.5C 525.167,802.5 495.833,802.5 466.5,802.5C 436.5,802.5 406.5,802.5 376.5,802.5C 376.5,796.167 376.5,789.833 376.5,783.5C 364.167,783.5 351.833,783.5 339.5,783.5C 339.5,777.5 339.5,771.5 339.5,765.5C 333.5,765.5 327.5,765.5 321.5,765.5C 309.833,765.5 298.167,765.5 286.5,765.5C 286.5,759.5 286.5,753.5 286.5,747.5C 274.167,747.5 261.833,747.5 249.5,747.5C 249.5,741.833 249.5,736.167 249.5,730.5C 243.833,730.5 238.167,730.5 232.5,730.5C 232.5,724.5 232.5,718.5 232.5,712.5C 226.5,712.5 220.5,712.5 214.5,712.5C 214.5,706.167 214.5,699.833 214.5,693.5C 208.5,693.5 202.5,693.5 196.5,693.5C 196.5,687.5 196.5,681.5 196.5,675.5C 190.167,675.5 183.833,675.5 177.5,675.5C 177.5,669.833 177.5,664.167 177.5,658.5C 177.5,652.5 177.5,646.5 177.5,640.5C 172.167,640.5 166.833,640.5 161.5,640.5C 161.5,628.167 161.5,615.833 161.5,603.5C 155.167,603.5 148.833,603.5 142.5,603.5C 142.5,585.833 142.5,568.167 142.5,550.5C 142.5,520.5 142.5,490.5 142.5,460.5C 148.833,460.5 155.167,460.5 161.5,460.5C 161.5,448.833 161.5,437.167 161.5,425.5C 166.833,425.5 172.167,425.5 177.5,425.5C 177.5,419.5 177.5,413.5 177.5,407.5C 172.167,407.5 166.833,407.5 161.5,407.5C 155.167,407.5 148.833,407.5 142.5,407.5C 142.5,383.5 142.5,359.5 142.5,335.5C 136.5,335.5 130.5,335.5 124.5,335.5C 124.5,317.167 124.5,298.833 124.5,280.5C 118.167,280.5 111.833,280.5 105.5,280.5C 105.5,274.833 105.5,269.167 105.5,263.5C 111.833,263.5 118.167,263.5 124.5,263.5C 124.5,221.167 124.5,178.833 124.5,136.5C 130.5,136.5 136.5,136.5 142.5,136.5C 142.5,131.167 142.5,125.833 142.5,120.5 Z"/></g>
<g><path style="opacity:1" fill="#481716" d="M 249.5,120.5 C 255.5,120.5 261.5,120.5 267.5,120.5C 273.833,120.5 280.167,120.5 286.5,120.5C 286.5,125.833 286.5,131.167 286.5,136.5C 274.167,136.5 261.833,136.5 249.5,136.5C 249.5,131.167 249.5,125.833 249.5,120.5 Z"/></g>
<g><path style="opacity:0.048" fill="#f6f6f6" d="M 286.5,120.5 C 298.167,120.5 309.833,120.5 321.5,120.5C 321.5,125.833 321.5,131.167 321.5,136.5C 309.833,136.5 298.167,136.5 286.5,136.5C 286.5,131.167 286.5,125.833 286.5,120.5 Z"/></g>
<g><path style="opacity:0.048" fill="#f6f6f6" d="M 734.5,120.5 C 734.5,125.833 734.5,131.167 734.5,136.5C 722.833,136.5 711.167,136.5 699.5,136.5C 699.5,131.167 699.5,125.833 699.5,120.5C 711.167,120.5 722.833,120.5 734.5,120.5 Z"/></g>
<g><path style="opacity:1" fill="#481716" d="M 734.5,120.5 C 740.833,120.5 747.167,120.5 753.5,120.5C 759.5,120.5 765.5,120.5 771.5,120.5C 771.5,125.833 771.5,131.167 771.5,136.5C 759.167,136.5 746.833,136.5 734.5,136.5C 734.5,131.167 734.5,125.833 734.5,120.5 Z"/></g>
<g><path style="opacity:1" fill="#491716" d="M 878.5,120.5 C 884.5,120.5 890.5,120.5 896.5,120.5C 896.5,125.833 896.5,131.167 896.5,136.5C 890.5,136.5 884.5,136.5 878.5,136.5C 878.5,131.167 878.5,125.833 878.5,120.5 Z"/></g>
<g><path style="opacity:1" fill="#481716" d="M 286.5,136.5 C 298.167,136.5 309.833,136.5 321.5,136.5C 321.5,142.833 321.5,149.167 321.5,155.5C 309.833,155.5 298.167,155.5 286.5,155.5C 286.5,149.167 286.5,142.833 286.5,136.5 Z"/></g>
<g><path style="opacity:0.004" fill="#f3f3f3" d="M 321.5,136.5 C 333.5,136.5 345.5,136.5 357.5,136.5C 357.5,142.833 357.5,149.167 357.5,155.5C 345.5,155.5 333.5,155.5 321.5,155.5C 321.5,149.167 321.5,142.833 321.5,136.5 Z"/></g>
<g><path style="opacity:0.09" fill="#f5f5f5" d="M 699.5,136.5 C 699.5,142.833 699.5,149.167 699.5,155.5C 687.5,155.5 675.5,155.5 663.5,155.5C 663.5,149.167 663.5,142.833 663.5,136.5C 675.5,136.5 687.5,136.5 699.5,136.5 Z"/></g>
<g><path style="opacity:1" fill="#481716" d="M 699.5,136.5 C 711.167,136.5 722.833,136.5 734.5,136.5C 734.5,142.833 734.5,149.167 734.5,155.5C 722.833,155.5 711.167,155.5 699.5,155.5C 699.5,149.167 699.5,142.833 699.5,136.5 Z"/></g>
<g><path style="opacity:1" fill="#481716" d="M 321.5,155.5 C 333.5,155.5 345.5,155.5 357.5,155.5C 357.5,161.5 357.5,167.5 357.5,173.5C 345.5,173.5 333.5,173.5 321.5,173.5C 321.5,167.5 321.5,161.5 321.5,155.5 Z"/></g>
<g><path style="opacity:0.012" fill="#f6f7f6" d="M 357.5,155.5 C 363.833,155.5 370.167,155.5 376.5,155.5C 376.5,161.5 376.5,167.5 376.5,173.5C 370.167,173.5 363.833,173.5 357.5,173.5C 357.5,167.5 357.5,161.5 357.5,155.5 Z"/></g>
<g><path style="opacity:0.012" fill="#f6f7f6" d="M 663.5,155.5 C 663.5,161.5 663.5,167.5 663.5,173.5C 657.167,173.5 650.833,173.5 644.5,173.5C 644.5,167.5 644.5,161.5 644.5,155.5C 650.833,155.5 657.167,155.5 663.5,155.5 Z"/></g>
<g><path style="opacity:1" fill="#481716" d="M 663.5,155.5 C 675.5,155.5 687.5,155.5 699.5,155.5C 699.5,161.5 699.5,167.5 699.5,173.5C 687.5,173.5 675.5,173.5 663.5,173.5C 663.5,167.5 663.5,161.5 663.5,155.5 Z"/></g>
<g><path style="opacity:1" fill="#d19392" d="M 196.5,192.5 C 190.167,192.5 183.833,192.5 177.5,192.5C 177.5,186.167 177.5,179.833 177.5,173.5C 183.833,173.5 190.167,173.5 196.5,173.5C 196.5,179.833 196.5,186.167 196.5,192.5 Z"/></g>
<g><path style="opacity:1" fill="#481716" d="M 357.5,173.5 C 363.833,173.5 370.167,173.5 376.5,173.5C 376.5,179.833 376.5,186.167 376.5,192.5C 370.167,192.5 363.833,192.5 357.5,192.5C 357.5,186.167 357.5,179.833 357.5,173.5 Z"/></g>
<g><path style="opacity:0.04" fill="#f6f6f6" d="M 376.5,173.5 C 388.167,173.5 399.833,173.5 411.5,173.5C 411.5,179.833 411.5,186.167 411.5,192.5C 399.833,192.5 388.167,192.5 376.5,192.5C 376.5,186.167 376.5,179.833 376.5,173.5 Z"/></g>
<g><path style="opacity:0.04" fill="#f6f6f6" d="M 644.5,173.5 C 644.5,179.833 644.5,186.167 644.5,192.5C 632.833,192.5 621.167,192.5 609.5,192.5C 609.5,186.167 609.5,179.833 609.5,173.5C 621.167,173.5 632.833,173.5 644.5,173.5 Z"/></g>
<g><path style="opacity:1" fill="#481716" d="M 644.5,173.5 C 650.833,173.5 657.167,173.5 663.5,173.5C 663.5,179.833 663.5,186.167 663.5,192.5C 657.167,192.5 650.833,192.5 644.5,192.5C 644.5,186.167 644.5,179.833 644.5,173.5 Z"/></g>
<g><path style="opacity:1" fill="#d19392" d="M 824.5,192.5 C 824.5,186.167 824.5,179.833 824.5,173.5C 830.833,173.5 837.167,173.5 843.5,173.5C 843.5,179.833 843.5,186.167 843.5,192.5C 837.167,192.5 830.833,192.5 824.5,192.5 Z"/></g>
<g><path style="opacity:1" fill="#d89d9d" d="M 196.5,192.5 C 208.5,192.5 220.5,192.5 232.5,192.5C 232.5,197.833 232.5,203.167 232.5,208.5C 220.5,208.5 208.5,208.5 196.5,208.5C 196.5,203.167 196.5,197.833 196.5,192.5 Z"/></g>
<g><path style="opacity:1" fill="#481716" d="M 376.5,192.5 C 388.167,192.5 399.833,192.5 411.5,192.5C 411.5,197.833 411.5,203.167 411.5,208.5C 405.833,208.5 400.167,208.5 394.5,208.5C 388.5,208.5 382.5,208.5 376.5,208.5C 376.5,203.167 376.5,197.833 376.5,192.5 Z"/></g>
<g><path style="opacity:0.118" fill="#f6f7f6" d="M 411.5,192.5 C 423.833,192.5 436.167,192.5 448.5,192.5C 448.5,197.833 448.5,203.167 448.5,208.5C 442.167,208.5 435.833,208.5 429.5,208.5C 423.5,208.5 417.5,208.5 411.5,208.5C 411.5,203.167 411.5,197.833 411.5,192.5 Z"/></g>
<g><path style="opacity:0.047" fill="#a28b8a" d="M 448.5,192.5 C 454.5,192.5 460.5,192.5 466.5,192.5C 466.5,197.833 466.5,203.167 466.5,208.5C 460.5,208.5 454.5,208.5 448.5,208.5C 448.5,203.167 448.5,197.833 448.5,192.5 Z"/></g>
<g><path style="opacity:0.048" fill="#f3f3f3" d="M 466.5,192.5 C 495.833,192.5 525.167,192.5 554.5,192.5C 554.5,197.833 554.5,203.167 554.5,208.5C 542.833,208.5 531.167,208.5 519.5,208.5C 513.5,208.5 507.5,208.5 501.5,208.5C 489.833,208.5 478.167,208.5 466.5,208.5C 466.5,203.167 466.5,197.833 466.5,192.5 Z"/></g>
<g><path style="opacity:0.047" fill="#a28b8a" d="M 554.5,192.5 C 560.5,192.5 566.5,192.5 572.5,192.5C 572.5,197.833 572.5,203.167 572.5,208.5C 566.5,208.5 560.5,208.5 554.5,208.5C 554.5,203.167 554.5,197.833 554.5,192.5 Z"/></g>
<g><path style="opacity:0.118" fill="#f6f7f6" d="M 572.5,192.5 C 584.833,192.5 597.167,192.5 609.5,192.5C 609.5,197.833 609.5,203.167 609.5,208.5C 597.167,208.5 584.833,208.5 572.5,208.5C 572.5,203.167 572.5,197.833 572.5,192.5 Z"/></g>
<g><path style="opacity:1" fill="#481716" d="M 609.5,192.5 C 621.167,192.5 632.833,192.5 644.5,192.5C 644.5,197.833 644.5,203.167 644.5,208.5C 638.5,208.5 632.5,208.5 626.5,208.5C 620.833,208.5 615.167,208.5 609.5,208.5C 609.5,203.167 609.5,197.833 609.5,192.5 Z"/></g>
<g><path style="opacity:1" fill="#d89d9d" d="M 824.5,192.5 C 824.5,197.833 824.5,203.167 824.5,208.5C 812.167,208.5 799.833,208.5 787.5,208.5C 787.5,203.167 787.5,197.833 787.5,192.5C 799.833,192.5 812.167,192.5 824.5,192.5 Z"/></g>
<g><path style="opacity:1" fill="#4a1818" d="M 124.5,136.5 C 124.5,178.833 124.5,221.167 124.5,263.5C 118.167,263.5 111.833,263.5 105.5,263.5C 105.5,257.5 105.5,251.5 105.5,245.5C 105.5,209.167 105.5,172.833 105.5,136.5C 111.833,136.5 118.167,136.5 124.5,136.5 Z"/></g>
<g><path style="opacity:1" fill="#d79e9d" d="M 232.5,208.5 C 238.167,208.5 243.833,208.5 249.5,208.5C 249.5,214.5 249.5,220.5 249.5,226.5C 243.833,226.5 238.167,226.5 232.5,226.5C 232.5,220.5 232.5,214.5 232.5,208.5 Z"/></g>
<g><path style="opacity:0.965" fill="#b9a9a8" d="M 394.5,208.5 C 400.167,208.5 405.833,208.5 411.5,208.5C 411.5,214.5 411.5,220.5 411.5,226.5C 405.833,226.5 400.167,226.5 394.5,226.5C 394.5,220.5 394.5,214.5 394.5,208.5 Z"/></g>
<g><path style="opacity:0.992" fill="#552726" d="M 411.5,208.5 C 417.5,208.5 423.5,208.5 429.5,208.5C 429.5,214.5 429.5,220.5 429.5,226.5C 423.5,226.5 417.5,226.5 411.5,226.5C 411.5,220.5 411.5,214.5 411.5,208.5 Z"/></g>
<g><path style="opacity:0.973" fill="#512222" d="M 429.5,208.5 C 435.833,208.5 442.167,208.5 448.5,208.5C 454.5,208.5 460.5,208.5 466.5,208.5C 466.5,214.5 466.5,220.5 466.5,226.5C 454.167,226.5 441.833,226.5 429.5,226.5C 429.5,220.5 429.5,214.5 429.5,208.5 Z"/></g>
<g><path style="opacity:0.969" fill="#653b3b" d="M 466.5,208.5 C 478.167,208.5 489.833,208.5 501.5,208.5C 501.5,214.5 501.5,220.5 501.5,226.5C 489.833,226.5 478.167,226.5 466.5,226.5C 466.5,220.5 466.5,214.5 466.5,208.5 Z"/></g>
<g><path style="opacity:1" fill="#481716" d="M 501.5,208.5 C 507.5,208.5 513.5,208.5 519.5,208.5C 519.5,214.5 519.5,220.5 519.5,226.5C 513.5,226.5 507.5,226.5 501.5,226.5C 501.5,220.5 501.5,214.5 501.5,208.5 Z"/></g>
<g><path style="opacity:0.961" fill="#633939" d="M 519.5,208.5 C 531.167,208.5 542.833,208.5 554.5,208.5C 554.5,214.5 554.5,220.5 554.5,226.5C 542.833,226.5 531.167,226.5 519.5,226.5C 519.5,220.5 519.5,214.5 519.5,208.5 Z"/></g>
<g><path style="opacity:0.996" fill="#502020" d="M 554.5,208.5 C 560.5,208.5 566.5,208.5 572.5,208.5C 584.833,208.5 597.167,208.5 609.5,208.5C 609.5,214.5 609.5,220.5 609.5,226.5C 591.167,226.5 572.833,226.5 554.5,226.5C 554.5,220.5 554.5,214.5 554.5,208.5 Z"/></g>
<g><path style="opacity:0.965" fill="#b9a9a8" d="M 609.5,208.5 C 615.167,208.5 620.833,208.5 626.5,208.5C 626.5,214.5 626.5,220.5 626.5,226.5C 620.833,226.5 615.167,226.5 609.5,226.5C 609.5,220.5 609.5,214.5 609.5,208.5 Z"/></g>
<g><path style="opacity:1" fill="#d79e9d" d="M 787.5,208.5 C 787.5,214.5 787.5,220.5 787.5,226.5C 782.167,226.5 776.833,226.5 771.5,226.5C 771.5,220.5 771.5,214.5 771.5,208.5C 776.833,208.5 782.167,208.5 787.5,208.5 Z"/></g>
<g><path style="opacity:1" fill="#4a1818" d="M 896.5,136.5 C 902.5,136.5 908.5,136.5 914.5,136.5C 914.5,172.833 914.5,209.167 914.5,245.5C 914.5,251.5 914.5,257.5 914.5,263.5C 908.5,263.5 902.5,263.5 896.5,263.5C 896.5,221.167 896.5,178.833 896.5,136.5 Z"/></g>
<g><path style="opacity:1" fill="#d79e9d" d="M 249.5,226.5 C 255.5,226.5 261.5,226.5 267.5,226.5C 267.5,232.833 267.5,239.167 267.5,245.5C 273.833,245.5 280.167,245.5 286.5,245.5C 286.5,257.167 286.5,268.833 286.5,280.5C 280.167,280.5 273.833,280.5 267.5,280.5C 267.5,274.833 267.5,269.167 267.5,263.5C 255.833,263.5 244.167,263.5 232.5,263.5C 232.5,257.5 232.5,251.5 232.5,245.5C 238.167,245.5 243.833,245.5 249.5,245.5C 249.5,239.167 249.5,232.833 249.5,226.5 Z"/></g>
<g><path style="opacity:1" fill="#d79e9d" d="M 771.5,226.5 C 771.5,232.833 771.5,239.167 771.5,245.5C 776.833,245.5 782.167,245.5 787.5,245.5C 787.5,251.5 787.5,257.5 787.5,263.5C 776.167,263.5 764.833,263.5 753.5,263.5C 753.5,269.167 753.5,274.833 753.5,280.5C 747.167,280.5 740.833,280.5 734.5,280.5C 734.5,268.833 734.5,257.167 734.5,245.5C 740.833,245.5 747.167,245.5 753.5,245.5C 753.5,239.167 753.5,232.833 753.5,226.5C 759.5,226.5 765.5,226.5 771.5,226.5 Z"/></g>
<g><path style="opacity:1" fill="#d79e9d" d="M 214.5,245.5 C 214.5,251.5 214.5,257.5 214.5,263.5C 208.5,263.5 202.5,263.5 196.5,263.5C 196.5,257.5 196.5,251.5 196.5,245.5C 202.5,245.5 208.5,245.5 214.5,245.5 Z"/></g>
<g><path style="opacity:1" fill="#f0bebe" d="M 214.5,245.5 C 220.5,245.5 226.5,245.5 232.5,245.5C 232.5,251.5 232.5,257.5 232.5,263.5C 244.167,263.5 255.833,263.5 267.5,263.5C 267.5,269.167 267.5,274.833 267.5,280.5C 273.833,280.5 280.167,280.5 286.5,280.5C 286.5,286.5 286.5,292.5 286.5,298.5C 280.167,298.5 273.833,298.5 267.5,298.5C 267.5,304.5 267.5,310.5 267.5,316.5C 261.5,316.5 255.5,316.5 249.5,316.5C 249.5,322.833 249.5,329.167 249.5,335.5C 243.833,335.5 238.167,335.5 232.5,335.5C 232.5,340.833 232.5,346.167 232.5,351.5C 226.5,351.5 220.5,351.5 214.5,351.5C 214.5,357.833 214.5,364.167 214.5,370.5C 208.5,370.5 202.5,370.5 196.5,370.5C 190.167,370.5 183.833,370.5 177.5,370.5C 177.5,364.167 177.5,357.833 177.5,351.5C 177.5,327.833 177.5,304.167 177.5,280.5C 183.833,280.5 190.167,280.5 196.5,280.5C 196.5,274.833 196.5,269.167 196.5,263.5C 202.5,263.5 208.5,263.5 214.5,263.5C 214.5,257.5 214.5,251.5 214.5,245.5 Z"/></g>
<g><path style="opacity:1" fill="#f0bebe" d="M 787.5,245.5 C 793.833,245.5 800.167,245.5 806.5,245.5C 806.5,251.5 806.5,257.5 806.5,263.5C 812.5,263.5 818.5,263.5 824.5,263.5C 824.5,269.167 824.5,274.833 824.5,280.5C 830.833,280.5 837.167,280.5 843.5,280.5C 843.5,304.167 843.5,327.833 843.5,351.5C 843.5,357.833 843.5,364.167 843.5,370.5C 837.167,370.5 830.833,370.5 824.5,370.5C 818.5,370.5 812.5,370.5 806.5,370.5C 806.5,364.167 806.5,357.833 806.5,351.5C 800.167,351.5 793.833,351.5 787.5,351.5C 787.5,346.167 787.5,340.833 787.5,335.5C 782.167,335.5 776.833,335.5 771.5,335.5C 771.5,329.167 771.5,322.833 771.5,316.5C 765.5,316.5 759.5,316.5 753.5,316.5C 753.5,310.5 753.5,304.5 753.5,298.5C 747.167,298.5 740.833,298.5 734.5,298.5C 734.5,292.5 734.5,286.5 734.5,280.5C 740.833,280.5 747.167,280.5 753.5,280.5C 753.5,274.833 753.5,269.167 753.5,263.5C 764.833,263.5 776.167,263.5 787.5,263.5C 787.5,257.5 787.5,251.5 787.5,245.5 Z"/></g>
<g><path style="opacity:1" fill="#d79e9d" d="M 806.5,245.5 C 812.5,245.5 818.5,245.5 824.5,245.5C 824.5,251.5 824.5,257.5 824.5,263.5C 824.5,257.5 824.5,251.5 824.5,245.5C 818.5,245.5 812.5,245.5 806.5,245.5 Z"/></g>
<g><path style="opacity:1" fill="#d79e9d" d="M 196.5,263.5 C 196.5,269.167 196.5,274.833 196.5,280.5C 190.167,280.5 183.833,280.5 177.5,280.5C 177.5,274.833 177.5,269.167 177.5,263.5C 183.833,263.5 190.167,263.5 196.5,263.5 Z"/></g>
<g><path style="opacity:1" fill="#d79e9d" d="M 824.5,263.5 C 830.833,263.5 837.167,263.5 843.5,263.5C 843.5,269.167 843.5,274.833 843.5,280.5C 837.167,280.5 830.833,280.5 824.5,280.5C 824.5,274.833 824.5,269.167 824.5,263.5 Z"/></g>
<g><path style="opacity:1" fill="#4a1918" d="M 105.5,280.5 C 111.833,280.5 118.167,280.5 124.5,280.5C 124.5,298.833 124.5,317.167 124.5,335.5C 118.167,335.5 111.833,335.5 105.5,335.5C 105.5,317.167 105.5,298.833 105.5,280.5 Z"/></g>
<g><path style="opacity:1" fill="#d79e9d" d="M 286.5,280.5 C 292.5,280.5 298.5,280.5 304.5,280.5C 304.5,286.5 304.5,292.5 304.5,298.5C 298.5,298.5 292.5,298.5 286.5,298.5C 286.5,292.5 286.5,286.5 286.5,280.5 Z"/></g>
<g><path style="opacity:1" fill="#d79e9d" d="M 734.5,280.5 C 734.5,286.5 734.5,292.5 734.5,298.5C 728.5,298.5 722.5,298.5 716.5,298.5C 716.5,292.5 716.5,286.5 716.5,280.5C 722.5,280.5 728.5,280.5 734.5,280.5 Z"/></g>
<g><path style="opacity:1" fill="#4a1918" d="M 914.5,280.5 C 914.5,298.833 914.5,317.167 914.5,335.5C 908.5,335.5 902.5,335.5 896.5,335.5C 896.5,317.167 896.5,298.833 896.5,280.5C 902.5,280.5 908.5,280.5 914.5,280.5 Z"/></g>
<g><path style="opacity:1" fill="#d79e9d" d="M 286.5,298.5 C 286.5,304.5 286.5,310.5 286.5,316.5C 280.167,316.5 273.833,316.5 267.5,316.5C 267.5,310.5 267.5,304.5 267.5,298.5C 273.833,298.5 280.167,298.5 286.5,298.5 Z"/></g>
<g><path style="opacity:1" fill="#d79e9d" d="M 734.5,298.5 C 740.833,298.5 747.167,298.5 753.5,298.5C 753.5,304.5 753.5,310.5 753.5,316.5C 747.167,316.5 740.833,316.5 734.5,316.5C 734.5,310.5 734.5,304.5 734.5,298.5 Z"/></g>
<g><path style="opacity:1" fill="#d79e9d" d="M 267.5,316.5 C 267.5,322.833 267.5,329.167 267.5,335.5C 261.5,335.5 255.5,335.5 249.5,335.5C 249.5,329.167 249.5,322.833 249.5,316.5C 255.5,316.5 261.5,316.5 267.5,316.5 Z"/></g>
<g><path style="opacity:1" fill="#d79e9d" d="M 753.5,316.5 C 759.5,316.5 765.5,316.5 771.5,316.5C 771.5,322.833 771.5,329.167 771.5,335.5C 765.5,335.5 759.5,335.5 753.5,335.5C 753.5,329.167 753.5,322.833 753.5,316.5 Z"/></g>
<g><path style="opacity:1" fill="#4a1918" d="M 124.5,335.5 C 130.5,335.5 136.5,335.5 142.5,335.5C 142.5,359.5 142.5,383.5 142.5,407.5C 136.5,407.5 130.5,407.5 124.5,407.5C 124.5,395.167 124.5,382.833 124.5,370.5C 124.5,358.833 124.5,347.167 124.5,335.5 Z"/></g>
<g><path style="opacity:1" fill="#d39696" d="M 177.5,280.5 C 177.5,304.167 177.5,327.833 177.5,351.5C 172.167,351.5 166.833,351.5 161.5,351.5C 161.5,327.833 161.5,304.167 161.5,280.5C 166.833,280.5 172.167,280.5 177.5,280.5 Z"/></g>
<g><path style="opacity:1" fill="#d79e9d" d="M 249.5,335.5 C 249.5,340.833 249.5,346.167 249.5,351.5C 243.833,351.5 238.167,351.5 232.5,351.5C 232.5,346.167 232.5,340.833 232.5,335.5C 238.167,335.5 243.833,335.5 249.5,335.5 Z"/></g>
<g><path style="opacity:1" fill="#d79e9d" d="M 771.5,335.5 C 776.833,335.5 782.167,335.5 787.5,335.5C 787.5,340.833 787.5,346.167 787.5,351.5C 782.167,351.5 776.833,351.5 771.5,351.5C 771.5,346.167 771.5,340.833 771.5,335.5 Z"/></g>
<g><path style="opacity:1" fill="#d39696" d="M 843.5,280.5 C 848.833,280.5 854.167,280.5 859.5,280.5C 859.5,304.167 859.5,327.833 859.5,351.5C 854.167,351.5 848.833,351.5 843.5,351.5C 843.5,327.833 843.5,304.167 843.5,280.5 Z"/></g>
<g><path style="opacity:1" fill="#4a1918" d="M 896.5,335.5 C 896.5,347.167 896.5,358.833 896.5,370.5C 896.5,382.833 896.5,395.167 896.5,407.5C 890.5,407.5 884.5,407.5 878.5,407.5C 878.5,383.5 878.5,359.5 878.5,335.5C 884.5,335.5 890.5,335.5 896.5,335.5 Z"/></g>
<g><path style="opacity:0.004" fill="#f4f4f4" d="M 105.5,335.5 C 111.833,335.5 118.167,335.5 124.5,335.5C 124.5,347.167 124.5,358.833 124.5,370.5C 118.167,370.5 111.833,370.5 105.5,370.5C 105.5,358.833 105.5,347.167 105.5,335.5 Z"/></g>
<g><path style="opacity:1" fill="#d79e9d" d="M 232.5,351.5 C 232.5,357.833 232.5,364.167 232.5,370.5C 226.5,370.5 220.5,370.5 214.5,370.5C 214.5,364.167 214.5,357.833 214.5,351.5C 220.5,351.5 226.5,351.5 232.5,351.5 Z"/></g>
<g><path style="opacity:1" fill="#d79e9d" d="M 787.5,351.5 C 793.833,351.5 800.167,351.5 806.5,351.5C 806.5,357.833 806.5,364.167 806.5,370.5C 800.167,370.5 793.833,370.5 787.5,370.5C 787.5,364.167 787.5,357.833 787.5,351.5 Z"/></g>
<g><path style="opacity:0.004" fill="#f4f4f4" d="M 896.5,335.5 C 902.5,335.5 908.5,335.5 914.5,335.5C 914.5,347.167 914.5,358.833 914.5,370.5C 908.5,370.5 902.5,370.5 896.5,370.5C 896.5,358.833 896.5,347.167 896.5,335.5 Z"/></g>
<g><path style="opacity:1" fill="#d59b9a" d="M 177.5,370.5 C 183.833,370.5 190.167,370.5 196.5,370.5C 196.5,376.5 196.5,382.5 196.5,388.5C 190.167,388.5 183.833,388.5 177.5,388.5C 177.5,382.5 177.5,376.5 177.5,370.5 Z"/></g>
<g><path style="opacity:1" fill="#d59b9a" d="M 824.5,370.5 C 830.833,370.5 837.167,370.5 843.5,370.5C 843.5,376.5 843.5,382.5 843.5,388.5C 837.167,388.5 830.833,388.5 824.5,388.5C 824.5,382.5 824.5,376.5 824.5,370.5 Z"/></g>
<g><path style="opacity:0.004" fill="#fefffe" d="M 124.5,407.5 C 130.5,407.5 136.5,407.5 142.5,407.5C 142.5,413.5 142.5,419.5 142.5,425.5C 136.5,425.5 130.5,425.5 124.5,425.5C 124.5,419.5 124.5,413.5 124.5,407.5 Z"/></g>
<g><path style="opacity:1" fill="#4a1918" d="M 142.5,407.5 C 148.833,407.5 155.167,407.5 161.5,407.5C 161.5,413.5 161.5,419.5 161.5,425.5C 161.5,437.167 161.5,448.833 161.5,460.5C 155.167,460.5 148.833,460.5 142.5,460.5C 142.5,448.833 142.5,437.167 142.5,425.5C 142.5,419.5 142.5,413.5 142.5,407.5 Z"/></g>
<g><path style="opacity:1" fill="#d69c9b" d="M 161.5,407.5 C 166.833,407.5 172.167,407.5 177.5,407.5C 177.5,413.5 177.5,419.5 177.5,425.5C 172.167,425.5 166.833,425.5 161.5,425.5C 161.5,419.5 161.5,413.5 161.5,407.5 Z"/></g>
<g><path style="opacity:1" fill="#d69c9b" d="M 859.5,407.5 C 859.5,413.5 859.5,419.5 859.5,425.5C 854.167,425.5 848.833,425.5 843.5,425.5C 843.5,419.5 843.5,413.5 843.5,407.5C 848.833,407.5 854.167,407.5 859.5,407.5 Z"/></g>
<g><path style="opacity:1" fill="#4a1918" d="M 859.5,407.5 C 865.833,407.5 872.167,407.5 878.5,407.5C 878.5,413.5 878.5,419.5 878.5,425.5C 878.5,437.167 878.5,448.833 878.5,460.5C 872.167,460.5 865.833,460.5 859.5,460.5C 859.5,448.833 859.5,437.167 859.5,425.5C 859.5,419.5 859.5,413.5 859.5,407.5 Z"/></g>
<g><path style="opacity:0.004" fill="#fefffe" d="M 878.5,407.5 C 884.5,407.5 890.5,407.5 896.5,407.5C 896.5,413.5 896.5,419.5 896.5,425.5C 890.5,425.5 884.5,425.5 878.5,425.5C 878.5,419.5 878.5,413.5 878.5,407.5 Z"/></g>
<g><path style="opacity:1" fill="#bc6b6a" d="M 394.5,513.5 C 388.5,513.5 382.5,513.5 376.5,513.5C 376.5,495.833 376.5,478.167 376.5,460.5C 382.5,460.5 388.5,460.5 394.5,460.5C 394.5,478.167 394.5,495.833 394.5,513.5 Z"/></g>
<g><path style="opacity:1" fill="#bc6b6a" d="M 644.5,513.5 C 638.5,513.5 632.5,513.5 626.5,513.5C 626.5,495.833 626.5,478.167 626.5,460.5C 632.5,460.5 638.5,460.5 644.5,460.5C 644.5,478.167 644.5,495.833 644.5,513.5 Z"/></g>
<g><path style="opacity:1" fill="#4a1818" d="M 878.5,460.5 C 884.5,460.5 890.5,460.5 896.5,460.5C 896.5,484.167 896.5,507.833 896.5,531.5C 902.5,531.5 908.5,531.5 914.5,531.5C 914.5,537.833 914.5,544.167 914.5,550.5C 908.5,550.5 902.5,550.5 896.5,550.5C 890.5,550.5 884.5,550.5 878.5,550.5C 878.5,520.5 878.5,490.5 878.5,460.5 Z"/></g>
<g><path style="opacity:1" fill="#fba9a8" d="M 376.5,513.5 C 382.5,513.5 388.5,513.5 394.5,513.5C 394.5,525.833 394.5,538.167 394.5,550.5C 388.5,550.5 382.5,550.5 376.5,550.5C 376.5,538.167 376.5,525.833 376.5,513.5 Z"/></g>
<g><path style="opacity:1" fill="#fba9a8" d="M 626.5,513.5 C 632.5,513.5 638.5,513.5 644.5,513.5C 644.5,525.833 644.5,538.167 644.5,550.5C 638.5,550.5 632.5,550.5 626.5,550.5C 626.5,538.167 626.5,525.833 626.5,513.5 Z"/></g>
<g><path style="opacity:0.008" fill="#ecbbba" d="M 105.5,531.5 C 105.5,537.833 105.5,544.167 105.5,550.5C 100.167,550.5 94.8333,550.5 89.5,550.5C 89.5,544.167 89.5,537.833 89.5,531.5C 94.8333,531.5 100.167,531.5 105.5,531.5 Z"/></g>
<g><path style="opacity:1" fill="#4a1818" d="M 142.5,460.5 C 142.5,490.5 142.5,520.5 142.5,550.5C 136.5,550.5 130.5,550.5 124.5,550.5C 124.5,556.5 124.5,562.5 124.5,568.5C 118.167,568.5 111.833,568.5 105.5,568.5C 105.5,574.167 105.5,579.833 105.5,585.5C 100.167,585.5 94.8333,585.5 89.5,585.5C 89.5,579.833 89.5,574.167 89.5,568.5C 89.5,562.5 89.5,556.5 89.5,550.5C 94.8333,550.5 100.167,550.5 105.5,550.5C 105.5,544.167 105.5,537.833 105.5,531.5C 111.833,531.5 118.167,531.5 124.5,531.5C 124.5,507.833 124.5,484.167 124.5,460.5C 130.5,460.5 136.5,460.5 142.5,460.5 Z"/></g>
<g><path style="opacity:0.008" fill="#ecbbba" d="M 914.5,531.5 C 920.167,531.5 925.833,531.5 931.5,531.5C 931.5,537.833 931.5,544.167 931.5,550.5C 925.833,550.5 920.167,550.5 914.5,550.5C 914.5,544.167 914.5,537.833 914.5,531.5 Z"/></g>
<g><path style="opacity:1" fill="#c87b7a" d="M 142.5,550.5 C 142.5,568.167 142.5,585.833 142.5,603.5C 136.5,603.5 130.5,603.5 124.5,603.5C 124.5,591.833 124.5,580.167 124.5,568.5C 124.5,562.5 124.5,556.5 124.5,550.5C 130.5,550.5 136.5,550.5 142.5,550.5 Z"/></g>
<g><path style="opacity:1" fill="#c87b7a" d="M 878.5,550.5 C 884.5,550.5 890.5,550.5 896.5,550.5C 896.5,568.167 896.5,585.833 896.5,603.5C 890.5,603.5 884.5,603.5 878.5,603.5C 878.5,585.833 878.5,568.167 878.5,550.5 Z"/></g>
<g><path style="opacity:1" fill="#efbebd" d="M 896.5,550.5 C 902.5,550.5 908.5,550.5 914.5,550.5C 914.5,562.167 914.5,573.833 914.5,585.5C 920.167,585.5 925.833,585.5 931.5,585.5C 931.5,591.5 931.5,597.5 931.5,603.5C 937.5,603.5 943.5,603.5 949.5,603.5C 949.5,609.833 949.5,616.167 949.5,622.5C 949.5,652.5 949.5,682.5 949.5,712.5C 943.5,712.5 937.5,712.5 931.5,712.5C 931.5,724.167 931.5,735.833 931.5,747.5C 925.833,747.5 920.167,747.5 914.5,747.5C 914.5,753.5 914.5,759.5 914.5,765.5C 908.5,765.5 902.5,765.5 896.5,765.5C 896.5,771.5 896.5,777.5 896.5,783.5C 890.5,783.5 884.5,783.5 878.5,783.5C 878.5,789.833 878.5,796.167 878.5,802.5C 872.167,802.5 865.833,802.5 859.5,802.5C 859.5,807.833 859.5,813.167 859.5,818.5C 847.833,818.5 836.167,818.5 824.5,818.5C 824.5,824.833 824.5,831.167 824.5,837.5C 812.167,837.5 799.833,837.5 787.5,837.5C 787.5,843.5 787.5,849.5 787.5,855.5C 776.167,855.5 764.833,855.5 753.5,855.5C 753.5,861.5 753.5,867.5 753.5,873.5C 735.5,873.5 717.5,873.5 699.5,873.5C 699.5,879.167 699.5,884.833 699.5,890.5C 675.167,890.5 650.833,890.5 626.5,890.5C 626.5,896.5 626.5,902.5 626.5,908.5C 549.167,908.5 471.833,908.5 394.5,908.5C 394.5,902.5 394.5,896.5 394.5,890.5C 370.167,890.5 345.833,890.5 321.5,890.5C 321.5,884.833 321.5,879.167 321.5,873.5C 303.5,873.5 285.5,873.5 267.5,873.5C 267.5,867.5 267.5,861.5 267.5,855.5C 255.833,855.5 244.167,855.5 232.5,855.5C 232.5,849.5 232.5,843.5 232.5,837.5C 220.5,837.5 208.5,837.5 196.5,837.5C 196.5,831.167 196.5,824.833 196.5,818.5C 184.833,818.5 173.167,818.5 161.5,818.5C 161.5,813.167 161.5,807.833 161.5,802.5C 155.167,802.5 148.833,802.5 142.5,802.5C 142.5,796.167 142.5,789.833 142.5,783.5C 136.5,783.5 130.5,783.5 124.5,783.5C 124.5,777.5 124.5,771.5 124.5,765.5C 118.167,765.5 111.833,765.5 105.5,765.5C 105.5,759.5 105.5,753.5 105.5,747.5C 100.167,747.5 94.8333,747.5 89.5,747.5C 89.5,735.833 89.5,724.167 89.5,712.5C 83.5,712.5 77.5,712.5 71.5,712.5C 71.5,682.5 71.5,652.5 71.5,622.5C 77.5,622.5 83.5,622.5 89.5,622.5C 89.5,610.167 89.5,597.833 89.5,585.5C 94.8333,585.5 100.167,585.5 105.5,585.5C 105.5,579.833 105.5,574.167 105.5,568.5C 111.833,568.5 118.167,568.5 124.5,568.5C 124.5,580.167 124.5,591.833 124.5,603.5C 130.5,603.5 136.5,603.5 142.5,603.5C 142.5,621.833 142.5,640.167 142.5,658.5C 148.833,658.5 155.167,658.5 161.5,658.5C 161.5,670.167 161.5,681.833 161.5,693.5C 166.833,693.5 172.167,693.5 177.5,693.5C 177.5,699.833 177.5,706.167 177.5,712.5C 183.833,712.5 190.167,712.5 196.5,712.5C 196.5,718.5 196.5,724.5 196.5,730.5C 202.5,730.5 208.5,730.5 214.5,730.5C 214.5,736.167 214.5,741.833 214.5,747.5C 226.167,747.5 237.833,747.5 249.5,747.5C 249.5,753.5 249.5,759.5 249.5,765.5C 255.5,765.5 261.5,765.5 267.5,765.5C 267.5,771.5 267.5,777.5 267.5,783.5C 279.833,783.5 292.167,783.5 304.5,783.5C 304.5,789.833 304.5,796.167 304.5,802.5C 316.167,802.5 327.833,802.5 339.5,802.5C 339.5,807.833 339.5,813.167 339.5,818.5C 369.5,818.5 399.5,818.5 429.5,818.5C 429.5,824.833 429.5,831.167 429.5,837.5C 483.5,837.5 537.5,837.5 591.5,837.5C 591.5,831.167 591.5,824.833 591.5,818.5C 621.5,818.5 651.5,818.5 681.5,818.5C 681.5,813.167 681.5,807.833 681.5,802.5C 693.167,802.5 704.833,802.5 716.5,802.5C 716.5,796.167 716.5,789.833 716.5,783.5C 728.833,783.5 741.167,783.5 753.5,783.5C 753.5,777.5 753.5,771.5 753.5,765.5C 759.5,765.5 765.5,765.5 771.5,765.5C 771.5,759.5 771.5,753.5 771.5,747.5C 783.167,747.5 794.833,747.5 806.5,747.5C 806.5,741.833 806.5,736.167 806.5,730.5C 812.5,730.5 818.5,730.5 824.5,730.5C 824.5,724.5 824.5,718.5 824.5,712.5C 830.833,712.5 837.167,712.5 843.5,712.5C 843.5,706.167 843.5,699.833 843.5,693.5C 848.833,693.5 854.167,693.5 859.5,693.5C 859.5,681.833 859.5,670.167 859.5,658.5C 865.833,658.5 872.167,658.5 878.5,658.5C 878.5,640.167 878.5,621.833 878.5,603.5C 884.5,603.5 890.5,603.5 896.5,603.5C 896.5,585.833 896.5,568.167 896.5,550.5 Z"/></g>
<g><path style="opacity:1" fill="#4a1918" d="M 914.5,550.5 C 920.167,550.5 925.833,550.5 931.5,550.5C 931.5,556.5 931.5,562.5 931.5,568.5C 931.5,574.167 931.5,579.833 931.5,585.5C 925.833,585.5 920.167,585.5 914.5,585.5C 914.5,573.833 914.5,562.167 914.5,550.5 Z"/></g>
<g><path style="opacity:0.059" fill="#eebdbc" d="M 89.5,568.5 C 89.5,574.167 89.5,579.833 89.5,585.5C 83.5,585.5 77.5,585.5 71.5,585.5C 71.5,579.833 71.5,574.167 71.5,568.5C 77.5,568.5 83.5,568.5 89.5,568.5 Z"/></g>
<g><path style="opacity:1" fill="#fba9a8" d="M 501.5,585.5 C 495.167,585.5 488.833,585.5 482.5,585.5C 482.5,579.833 482.5,574.167 482.5,568.5C 488.833,568.5 495.167,568.5 501.5,568.5C 501.5,574.167 501.5,579.833 501.5,585.5 Z"/></g>
<g><path style="opacity:1" fill="#fba9a8" d="M 519.5,585.5 C 519.5,579.833 519.5,574.167 519.5,568.5C 525.833,568.5 532.167,568.5 538.5,568.5C 538.5,574.167 538.5,579.833 538.5,585.5C 532.167,585.5 525.833,585.5 519.5,585.5 Z"/></g>
<g><path style="opacity:0.059" fill="#eebdbc" d="M 931.5,568.5 C 937.5,568.5 943.5,568.5 949.5,568.5C 949.5,574.167 949.5,579.833 949.5,585.5C 943.5,585.5 937.5,585.5 931.5,585.5C 931.5,579.833 931.5,574.167 931.5,568.5 Z"/></g>
<g><path style="opacity:1" fill="#fba9a8" d="M 321.5,603.5 C 315.833,603.5 310.167,603.5 304.5,603.5C 304.5,597.5 304.5,591.5 304.5,585.5C 310.167,585.5 315.833,585.5 321.5,585.5C 321.5,591.5 321.5,597.5 321.5,603.5 Z"/></g>
<g><path style="opacity:1" fill="#fba9a8" d="M 357.5,603.5 C 351.5,603.5 345.5,603.5 339.5,603.5C 339.5,597.5 339.5,591.5 339.5,585.5C 345.5,585.5 351.5,585.5 357.5,585.5C 357.5,591.5 357.5,597.5 357.5,603.5 Z"/></g>
<g><path style="opacity:1" fill="#fba9a8" d="M 376.5,603.5 C 376.5,597.5 376.5,591.5 376.5,585.5C 382.5,585.5 388.5,585.5 394.5,585.5C 394.5,591.5 394.5,597.5 394.5,603.5C 388.5,603.5 382.5,603.5 376.5,603.5 Z"/></g>
<g><path style="opacity:1" fill="#fba9a8" d="M 501.5,585.5 C 507.5,585.5 513.5,585.5 519.5,585.5C 519.5,591.5 519.5,597.5 519.5,603.5C 513.5,603.5 507.5,603.5 501.5,603.5C 501.5,597.5 501.5,591.5 501.5,585.5 Z"/></g>
<g><path style="opacity:1" fill="#fba9a8" d="M 644.5,603.5 C 638.5,603.5 632.5,603.5 626.5,603.5C 626.5,597.5 626.5,591.5 626.5,585.5C 632.5,585.5 638.5,585.5 644.5,585.5C 644.5,591.5 644.5,597.5 644.5,603.5 Z"/></g>
<g><path style="opacity:1" fill="#fba9a8" d="M 681.5,603.5 C 675.5,603.5 669.5,603.5 663.5,603.5C 663.5,597.5 663.5,591.5 663.5,585.5C 669.5,585.5 675.5,585.5 681.5,585.5C 681.5,591.5 681.5,597.5 681.5,603.5 Z"/></g>
<g><path style="opacity:1" fill="#fba9a8" d="M 699.5,603.5 C 699.5,597.5 699.5,591.5 699.5,585.5C 705.167,585.5 710.833,585.5 716.5,585.5C 716.5,591.5 716.5,597.5 716.5,603.5C 710.833,603.5 705.167,603.5 699.5,603.5 Z"/></g>
<g><path style="opacity:1" fill="#4a1918" d="M 931.5,585.5 C 937.5,585.5 943.5,585.5 949.5,585.5C 949.5,591.5 949.5,597.5 949.5,603.5C 943.5,603.5 937.5,603.5 931.5,603.5C 931.5,597.5 931.5,591.5 931.5,585.5 Z"/></g>
<g><path style="opacity:1" fill="#491717" d="M 71.5,585.5 C 77.5,585.5 83.5,585.5 89.5,585.5C 89.5,597.833 89.5,610.167 89.5,622.5C 83.5,622.5 77.5,622.5 71.5,622.5C 71.5,610.167 71.5,597.833 71.5,585.5 Z"/></g>
<g><path style="opacity:1" fill="#c87b7a" d="M 142.5,603.5 C 148.833,603.5 155.167,603.5 161.5,603.5C 161.5,615.833 161.5,628.167 161.5,640.5C 161.5,646.5 161.5,652.5 161.5,658.5C 155.167,658.5 148.833,658.5 142.5,658.5C 142.5,640.167 142.5,621.833 142.5,603.5 Z"/></g>
<g><path style="opacity:1" fill="#fba9a8" d="M 321.5,603.5 C 327.5,603.5 333.5,603.5 339.5,603.5C 339.5,609.833 339.5,616.167 339.5,622.5C 333.5,622.5 327.5,622.5 321.5,622.5C 321.5,616.167 321.5,609.833 321.5,603.5 Z"/></g>
<g><path style="opacity:1" fill="#fba9a8" d="M 357.5,603.5 C 363.833,603.5 370.167,603.5 376.5,603.5C 376.5,609.833 376.5,616.167 376.5,622.5C 370.167,622.5 363.833,622.5 357.5,622.5C 357.5,616.167 357.5,609.833 357.5,603.5 Z"/></g>
<g><path style="opacity:1" fill="#fba9a8" d="M 501.5,603.5 C 501.5,609.833 501.5,616.167 501.5,622.5C 495.167,622.5 488.833,622.5 482.5,622.5C 482.5,616.167 482.5,609.833 482.5,603.5C 488.833,603.5 495.167,603.5 501.5,603.5 Z"/></g>
<g><path style="opacity:1" fill="#fba9a8" d="M 519.5,603.5 C 525.833,603.5 532.167,603.5 538.5,603.5C 538.5,609.833 538.5,616.167 538.5,622.5C 532.167,622.5 525.833,622.5 519.5,622.5C 519.5,616.167 519.5,609.833 519.5,603.5 Z"/></g>
<g><path style="opacity:1" fill="#fba9a8" d="M 644.5,603.5 C 650.833,603.5 657.167,603.5 663.5,603.5C 663.5,609.833 663.5,616.167 663.5,622.5C 657.167,622.5 650.833,622.5 644.5,622.5C 644.5,616.167 644.5,609.833 644.5,603.5 Z"/></g>
<g><path style="opacity:1" fill="#fba9a8" d="M 681.5,603.5 C 687.5,603.5 693.5,603.5 699.5,603.5C 699.5,609.833 699.5,616.167 699.5,622.5C 693.5,622.5 687.5,622.5 681.5,622.5C 681.5,616.167 681.5,609.833 681.5,603.5 Z"/></g>
<g><path style="opacity:1" fill="#c87b7a" d="M 878.5,603.5 C 878.5,621.833 878.5,640.167 878.5,658.5C 872.167,658.5 865.833,658.5 859.5,658.5C 859.5,652.5 859.5,646.5 859.5,640.5C 859.5,628.167 859.5,615.833 859.5,603.5C 865.833,603.5 872.167,603.5 878.5,603.5 Z"/></g>
<g><path style="opacity:1" fill="#4a1918" d="M 71.5,622.5 C 71.5,652.5 71.5,682.5 71.5,712.5C 77.5,712.5 83.5,712.5 89.5,712.5C 89.5,724.167 89.5,735.833 89.5,747.5C 94.8333,747.5 100.167,747.5 105.5,747.5C 105.5,753.5 105.5,759.5 105.5,765.5C 94.1667,765.5 82.8333,765.5 71.5,765.5C 71.5,753.833 71.5,742.167 71.5,730.5C 65.1667,730.5 58.8333,730.5 52.5,730.5C 52.5,694.5 52.5,658.5 52.5,622.5C 58.8333,622.5 65.1667,622.5 71.5,622.5 Z"/></g>
<g><path style="opacity:1" fill="#4a1918" d="M 949.5,622.5 C 955.833,622.5 962.167,622.5 968.5,622.5C 968.5,658.5 968.5,694.5 968.5,730.5C 962.167,730.5 955.833,730.5 949.5,730.5C 949.5,742.167 949.5,753.833 949.5,765.5C 937.833,765.5 926.167,765.5 914.5,765.5C 914.5,759.5 914.5,753.5 914.5,747.5C 920.167,747.5 925.833,747.5 931.5,747.5C 931.5,735.833 931.5,724.167 931.5,712.5C 937.5,712.5 943.5,712.5 949.5,712.5C 949.5,682.5 949.5,652.5 949.5,622.5 Z"/></g>
<g><path style="opacity:0.945" fill="#efbebd" d="M 161.5,640.5 C 166.833,640.5 172.167,640.5 177.5,640.5C 177.5,646.5 177.5,652.5 177.5,658.5C 172.167,658.5 166.833,658.5 161.5,658.5C 161.5,652.5 161.5,646.5 161.5,640.5 Z"/></g>
<g><path style="opacity:0.945" fill="#efbebd" d="M 859.5,640.5 C 859.5,646.5 859.5,652.5 859.5,658.5C 854.167,658.5 848.833,658.5 843.5,658.5C 843.5,652.5 843.5,646.5 843.5,640.5C 848.833,640.5 854.167,640.5 859.5,640.5 Z"/></g>
<g><path style="opacity:1" fill="#c87b7a" d="M 161.5,658.5 C 166.833,658.5 172.167,658.5 177.5,658.5C 177.5,664.167 177.5,669.833 177.5,675.5C 183.833,675.5 190.167,675.5 196.5,675.5C 196.5,681.5 196.5,687.5 196.5,693.5C 202.5,693.5 208.5,693.5 214.5,693.5C 214.5,699.833 214.5,706.167 214.5,712.5C 220.5,712.5 226.5,712.5 232.5,712.5C 232.5,718.5 232.5,724.5 232.5,730.5C 238.167,730.5 243.833,730.5 249.5,730.5C 249.5,736.167 249.5,741.833 249.5,747.5C 237.833,747.5 226.167,747.5 214.5,747.5C 214.5,741.833 214.5,736.167 214.5,730.5C 208.5,730.5 202.5,730.5 196.5,730.5C 196.5,724.5 196.5,718.5 196.5,712.5C 190.167,712.5 183.833,712.5 177.5,712.5C 177.5,706.167 177.5,699.833 177.5,693.5C 172.167,693.5 166.833,693.5 161.5,693.5C 161.5,681.833 161.5,670.167 161.5,658.5 Z"/></g>
<g><path style="opacity:1" fill="#c87b7a" d="M 843.5,658.5 C 848.833,658.5 854.167,658.5 859.5,658.5C 859.5,670.167 859.5,681.833 859.5,693.5C 854.167,693.5 848.833,693.5 843.5,693.5C 843.5,699.833 843.5,706.167 843.5,712.5C 837.167,712.5 830.833,712.5 824.5,712.5C 824.5,718.5 824.5,724.5 824.5,730.5C 818.5,730.5 812.5,730.5 806.5,730.5C 806.5,736.167 806.5,741.833 806.5,747.5C 794.833,747.5 783.167,747.5 771.5,747.5C 771.5,741.833 771.5,736.167 771.5,730.5C 776.833,730.5 782.167,730.5 787.5,730.5C 787.5,724.5 787.5,718.5 787.5,712.5C 793.833,712.5 800.167,712.5 806.5,712.5C 806.5,706.167 806.5,699.833 806.5,693.5C 812.5,693.5 818.5,693.5 824.5,693.5C 824.5,687.5 824.5,681.5 824.5,675.5C 830.833,675.5 837.167,675.5 843.5,675.5C 843.5,669.833 843.5,664.167 843.5,658.5 Z"/></g>
<g><path style="opacity:1" fill="#c87b7a" d="M 249.5,747.5 C 261.833,747.5 274.167,747.5 286.5,747.5C 286.5,753.5 286.5,759.5 286.5,765.5C 298.167,765.5 309.833,765.5 321.5,765.5C 327.5,765.5 333.5,765.5 339.5,765.5C 339.5,771.5 339.5,777.5 339.5,783.5C 351.833,783.5 364.167,783.5 376.5,783.5C 376.5,789.833 376.5,796.167 376.5,802.5C 406.5,802.5 436.5,802.5 466.5,802.5C 466.5,807.833 466.5,813.167 466.5,818.5C 495.833,818.5 525.167,818.5 554.5,818.5C 554.5,813.167 554.5,807.833 554.5,802.5C 584.5,802.5 614.5,802.5 644.5,802.5C 644.5,796.167 644.5,789.833 644.5,783.5C 656.833,783.5 669.167,783.5 681.5,783.5C 687.5,783.5 693.5,783.5 699.5,783.5C 699.5,777.5 699.5,771.5 699.5,765.5C 711.167,765.5 722.833,765.5 734.5,765.5C 734.5,759.5 734.5,753.5 734.5,747.5C 746.833,747.5 759.167,747.5 771.5,747.5C 771.5,753.5 771.5,759.5 771.5,765.5C 765.5,765.5 759.5,765.5 753.5,765.5C 753.5,771.5 753.5,777.5 753.5,783.5C 741.167,783.5 728.833,783.5 716.5,783.5C 716.5,789.833 716.5,796.167 716.5,802.5C 704.833,802.5 693.167,802.5 681.5,802.5C 681.5,807.833 681.5,813.167 681.5,818.5C 651.5,818.5 621.5,818.5 591.5,818.5C 591.5,824.833 591.5,831.167 591.5,837.5C 537.5,837.5 483.5,837.5 429.5,837.5C 429.5,831.167 429.5,824.833 429.5,818.5C 399.5,818.5 369.5,818.5 339.5,818.5C 339.5,813.167 339.5,807.833 339.5,802.5C 327.833,802.5 316.167,802.5 304.5,802.5C 304.5,796.167 304.5,789.833 304.5,783.5C 292.167,783.5 279.833,783.5 267.5,783.5C 267.5,777.5 267.5,771.5 267.5,765.5C 261.5,765.5 255.5,765.5 249.5,765.5C 249.5,759.5 249.5,753.5 249.5,747.5 Z"/></g>
<g><path style="opacity:1" fill="#4a1918" d="M 105.5,765.5 C 111.833,765.5 118.167,765.5 124.5,765.5C 124.5,771.5 124.5,777.5 124.5,783.5C 130.5,783.5 136.5,783.5 142.5,783.5C 142.5,789.833 142.5,796.167 142.5,802.5C 148.833,802.5 155.167,802.5 161.5,802.5C 161.5,807.833 161.5,813.167 161.5,818.5C 149.167,818.5 136.833,818.5 124.5,818.5C 124.5,813.167 124.5,807.833 124.5,802.5C 118.167,802.5 111.833,802.5 105.5,802.5C 105.5,790.167 105.5,777.833 105.5,765.5 Z"/></g>
<g><path style="opacity:1" fill="#d4c1c0" d="M 321.5,765.5 C 327.5,765.5 333.5,765.5 339.5,765.5C 339.5,771.5 339.5,777.5 339.5,783.5C 333.5,783.5 327.5,783.5 321.5,783.5C 321.5,777.5 321.5,771.5 321.5,765.5 Z"/></g>
<g><path style="opacity:1" fill="#d4c1c0" d="M 699.5,765.5 C 699.5,771.5 699.5,777.5 699.5,783.5C 693.5,783.5 687.5,783.5 681.5,783.5C 681.5,777.5 681.5,771.5 681.5,765.5C 687.5,765.5 693.5,765.5 699.5,765.5 Z"/></g>
<g><path style="opacity:1" fill="#4a1918" d="M 914.5,765.5 C 914.5,777.833 914.5,790.167 914.5,802.5C 908.5,802.5 902.5,802.5 896.5,802.5C 896.5,807.833 896.5,813.167 896.5,818.5C 884.167,818.5 871.833,818.5 859.5,818.5C 859.5,813.167 859.5,807.833 859.5,802.5C 865.833,802.5 872.167,802.5 878.5,802.5C 878.5,796.167 878.5,789.833 878.5,783.5C 884.5,783.5 890.5,783.5 896.5,783.5C 896.5,777.5 896.5,771.5 896.5,765.5C 902.5,765.5 908.5,765.5 914.5,765.5 Z"/></g>
<g><path style="opacity:1" fill="#811615" d="M 466.5,802.5 C 495.833,802.5 525.167,802.5 554.5,802.5C 554.5,807.833 554.5,813.167 554.5,818.5C 525.167,818.5 495.833,818.5 466.5,818.5C 466.5,813.167 466.5,807.833 466.5,802.5 Z"/></g>
<g><path style="opacity:0.96" fill="#4a1918" d="M 161.5,818.5 C 173.167,818.5 184.833,818.5 196.5,818.5C 196.5,824.833 196.5,831.167 196.5,837.5C 208.5,837.5 220.5,837.5 232.5,837.5C 232.5,843.5 232.5,849.5 232.5,855.5C 244.167,855.5 255.833,855.5 267.5,855.5C 267.5,861.5 267.5,867.5 267.5,873.5C 285.5,873.5 303.5,873.5 321.5,873.5C 321.5,879.167 321.5,884.833 321.5,890.5C 345.833,890.5 370.167,890.5 394.5,890.5C 394.5,896.5 394.5,902.5 394.5,908.5C 471.833,908.5 549.167,908.5 626.5,908.5C 626.5,902.5 626.5,896.5 626.5,890.5C 650.833,890.5 675.167,890.5 699.5,890.5C 699.5,884.833 699.5,879.167 699.5,873.5C 717.5,873.5 735.5,873.5 753.5,873.5C 753.5,867.5 753.5,861.5 753.5,855.5C 764.833,855.5 776.167,855.5 787.5,855.5C 787.5,849.5 787.5,843.5 787.5,837.5C 799.833,837.5 812.167,837.5 824.5,837.5C 824.5,831.167 824.5,824.833 824.5,818.5C 836.167,818.5 847.833,818.5 859.5,818.5C 859.5,824.833 859.5,831.167 859.5,837.5C 854.167,837.5 848.833,837.5 843.5,837.5C 843.5,843.5 843.5,849.5 843.5,855.5C 831.167,855.5 818.833,855.5 806.5,855.5C 806.5,861.5 806.5,867.5 806.5,873.5C 794.833,873.5 783.167,873.5 771.5,873.5C 771.5,879.167 771.5,884.833 771.5,890.5C 753.167,890.5 734.833,890.5 716.5,890.5C 716.5,896.5 716.5,902.5 716.5,908.5C 698.833,908.5 681.167,908.5 663.5,908.5C 663.5,914.833 663.5,921.167 663.5,927.5C 567.833,927.5 472.167,927.5 376.5,927.5C 376.5,921.167 376.5,914.833 376.5,908.5C 352.5,908.5 328.5,908.5 304.5,908.5C 304.5,902.5 304.5,896.5 304.5,890.5C 286.167,890.5 267.833,890.5 249.5,890.5C 249.5,884.833 249.5,879.167 249.5,873.5C 237.833,873.5 226.167,873.5 214.5,873.5C 214.5,867.5 214.5,861.5 214.5,855.5C 202.167,855.5 189.833,855.5 177.5,855.5C 177.5,849.5 177.5,843.5 177.5,837.5C 172.167,837.5 166.833,837.5 161.5,837.5C 161.5,831.167 161.5,824.833 161.5,818.5 Z"/></g>
</svg>
